<?xml version="1.0" standalone="no"?>
<!DOCTYPE svg PUBLIC "-//W3C//DTD SVG 20010904//EN"
 "http://www.w3.org/TR/2001/REC-SVG-20010904/DTD/svg10.dtd">
<svg version="1.0" xmlns="http://www.w3.org/2000/svg"
 width="348.000000pt" height="96.000000pt" viewBox="0 0 348.000000 96.000000"
 preserveAspectRatio="xMidYMid meet">

<g transform="translate(0.000000,96.000000) scale(0.100000,-0.100000)"
fill="#000000" stroke="none">
<path d="M0 480 l0 -480 1740 0 1740 0 0 480 0 480 -1740 0 -1740 0 0 -480z
m3450 0 l0 -450 -1715 0 -1715 0 0 450 0 450 1715 0 1715 0 0 -450z"/>
<path d="M90 480 l0 -390 825 0 825 0 0 390 0 390 -825 0 -825 0 0 -390z m528
95 c12 -14 22 -33 22 -41 0 -21 -28 -17 -35 6 -11 35 -88 44 -112 13 -19 -25
1 -49 52 -63 66 -19 95 -44 95 -85 0 -44 -29 -65 -93 -65 -38 0 -53 5 -72 25
-26 25 -33 55 -14 55 6 0 20 -11 31 -25 35 -45 126 -28 116 22 -2 12 -25 25
-68 40 -66 23 -90 43 -90 74 0 32 13 51 44 65 43 20 96 10 124 -21z m272 10
c0 -12 -13 -15 -60 -15 l-60 0 0 -40 0 -39 57 -3 c81 -4 85 -28 4 -28 l-61 0
0 -45 0 -45 65 0 c51 0 65 -3 65 -15 0 -12 -16 -15 -80 -15 l-80 0 0 130 0
130 75 0 c60 0 75 -3 75 -15z m130 -100 l0 -115 65 0 c51 0 65 -3 65 -15 0
-12 -16 -15 -80 -15 l-80 0 0 130 c0 109 2 130 15 130 12 0 15 -19 15 -115z
m240 0 l0 -115 65 0 c51 0 65 -3 65 -15 0 -12 -16 -15 -80 -15 l-80 0 0 130
c0 109 2 130 15 130 12 0 15 -19 15 -115z"/>
<path d="M2450 612 c-30 -14 -35 -23 -38 -55 -4 -49 15 -71 79 -92 48 -16 63
-37 34 -49 -18 -6 -45 2 -45 15 0 5 -18 9 -39 9 -34 0 -38 -3 -34 -19 9 -37
48 -63 95 -63 23 -1 54 2 66 6 42 14 61 98 28 125 -6 5 -34 18 -61 28 -29 11
-50 25 -50 33 0 21 44 25 51 6 7 -18 74 -23 74 -5 0 24 -24 52 -55 65 -45 18
-63 18 -105 -4z"/>
<path d="M2851 612 c-94 -47 -105 -172 -20 -234 34 -25 117 -26 158 -2 34 20
61 68 61 108 0 26 -1 26 -75 26 -73 0 -75 -1 -75 -24 0 -21 5 -25 38 -28 l37
-3 -28 -19 c-36 -25 -77 -13 -91 27 -23 66 36 118 96 84 33 -19 88 -23 88 -6
0 25 -25 52 -63 70 -52 23 -83 24 -126 1z"/>
<path d="M1900 490 l0 -130 71 0 c110 0 159 32 174 112 9 47 -16 103 -57 128
-26 15 -50 20 -110 20 l-78 0 0 -130z m152 43 c40 -36 9 -103 -48 -103 l-34 0
0 60 0 60 32 0 c17 0 40 -7 50 -17z"/>
<path d="M2190 490 l0 -130 90 0 90 0 0 30 c0 30 -1 30 -55 30 -48 0 -55 2
-55 20 0 17 7 20 50 20 49 0 50 1 50 30 0 29 -1 30 -50 30 -43 0 -50 3 -50 20
0 18 7 20 55 20 54 0 55 0 55 30 l0 30 -90 0 -90 0 0 -130z"/>
<path d="M2660 490 l0 -130 35 0 35 0 0 130 0 130 -35 0 -35 0 0 -130z"/>
<path d="M3090 490 l0 -130 40 0 39 0 3 62 3 63 45 -62 c39 -54 49 -62 78 -63
l32 0 0 130 0 130 -40 0 -39 0 -3 -61 -3 -61 -44 61 c-39 54 -48 61 -78 61
l-33 0 0 -130z"/>
</g>
</svg>
